<svg xmlns="http://www.w3.org/2000/svg" viewBox="0 0 600 600" width="600" height="600">
  <defs>
    <!-- Sky gradient -->
    <linearGradient id="skyGrad" x1="0" y1="0" x2="0" y2="1">
      <stop offset="0%" stop-color="#1a1a2e"/>
      <stop offset="100%" stop-color="#16213e"/>
    </linearGradient>
    <!-- Grass gradient -->
    <linearGradient id="grassGrad" x1="0" y1="0" x2="0" y2="1">
      <stop offset="0%" stop-color="#2d6a2d"/>
      <stop offset="100%" stop-color="#1b4d1b"/>
    </linearGradient>
    <!-- Beer can gradient -->
    <linearGradient id="canGrad" x1="0" y1="0" x2="1" y2="0">
      <stop offset="0%" stop-color="#d4a017"/>
      <stop offset="30%" stop-color="#f0c040"/>
      <stop offset="60%" stop-color="#d4a017"/>
      <stop offset="100%" stop-color="#b8860b"/>
    </linearGradient>
    <!-- Shield shape -->
    <clipPath id="shieldClip">
      <path d="M300 40 L520 120 L520 350 Q520 500 300 570 Q80 500 80 350 L80 120 Z"/>
    </clipPath>
    <filter id="shadow">
      <feDropShadow dx="2" dy="3" stdDeviation="3" flood-color="rgba(0,0,0,0.4)"/>
    </filter>
    <filter id="glow">
      <feGaussianBlur stdDeviation="3" result="blur"/>
      <feMerge>
        <feMergeNode in="blur"/>
        <feMergeNode in="SourceGraphic"/>
      </feMerge>
    </filter>
    <filter id="softGlow">
      <feGaussianBlur stdDeviation="1.5" result="blur"/>
      <feMerge>
        <feMergeNode in="blur"/>
        <feMergeNode in="SourceGraphic"/>
      </feMerge>
    </filter>
    <!-- Golf ball dimples -->
    <pattern id="dimples2" x="0" y="0" width="6" height="6" patternUnits="userSpaceOnUse">
      <circle cx="3" cy="3" r="1.2" fill="rgba(0,0,0,0.07)"/>
    </pattern>
  </defs>

  <!-- Shield background -->
  <path d="M300 40 L520 120 L520 350 Q520 500 300 570 Q80 500 80 350 L80 120 Z" fill="url(#skyGrad)"/>
  <path d="M300 55 L505 130 L505 348 Q505 488 300 555 Q95 488 95 348 L95 130 Z" fill="none" stroke="#d4a017" stroke-width="1.5" opacity="0.5"/>

  <!-- Grass hill at bottom of shield (clipped to shield shape) -->
  <clipPath id="shieldInner">
    <path d="M300 40 L520 120 L520 350 Q520 500 300 570 Q80 500 80 350 L80 120 Z"/>
  </clipPath>
  <rect x="80" y="370" width="440" height="200" fill="url(#grassGrad)" clip-path="url(#shieldInner)"/>
  <!-- Grass texture lines -->
  <path d="M150 460 Q155 450, 160 460" fill="none" stroke="#3a8a3a" stroke-width="1.5" opacity="0.5"/>
  <path d="M200 480 Q205 470, 210 480" fill="none" stroke="#3a8a3a" stroke-width="1.5" opacity="0.5"/>
  <path d="M380 470 Q385 460, 390 470" fill="none" stroke="#3a8a3a" stroke-width="1.5" opacity="0.5"/>
  <path d="M430 450 Q435 440, 440 450" fill="none" stroke="#3a8a3a" stroke-width="1.5" opacity="0.5"/>
  <path d="M280 500 Q285 490, 290 500" fill="none" stroke="#3a8a3a" stroke-width="1.5" opacity="0.5"/>

  <!-- Inner gold border (on top of grass so it's visible all around) -->
  <path d="M300 55 L505 130 L505 348 Q505 488 300 555 Q95 488 95 348 L95 130 Z" fill="none" stroke="#d4a017" stroke-width="1.5" opacity="0.5"/>



  <!-- LARAVEL text - top -->
  <text x="300" y="245" font-family="'Impact', 'Arial Black', sans-serif" font-size="58" fill="#f0c040" stroke="#8b6914" stroke-width="2.5" text-anchor="middle" letter-spacing="4" filter="url(#glow)">LARAVEL</text>

  <!-- GOLF text -->
  <text x="300" y="335" font-family="'Impact', 'Arial Black', sans-serif" font-size="72" fill="#f0c040" stroke="#8b6914" stroke-width="2.5" text-anchor="middle" letter-spacing="8" filter="url(#glow)">GOLF</text>



  <!-- Outer gold border (on top of everything for consistent thickness) -->
  <path d="M300 40 L520 120 L520 350 Q520 500 300 570 Q80 500 80 350 L80 120 Z" fill="none" stroke="#d4a017" stroke-width="6"/>
</svg>